<svg id="Layer_1" data-name="Layer 1" xmlns="http://www.w3.org/2000/svg" viewBox="0 0 431 438"><defs><style>.cls-1{stroke:#000;stroke-miterlimit:10;stroke-width:2px;}</style></defs><g id="B9nQ0l.tif"><path d="M180.07,101.54a35.33,35.33,0,0,1,5.17.44,10.55,10.55,0,0,1,7.41,5.33q4.42,7.78,8.74,15.63a1.34,1.34,0,0,0,1.46.82,96.23,96.23,0,0,1,14.8.14,67.07,67.07,0,0,1,13,2.35.92.92,0,0,0,1.27-.5c1.91-3.21,3.82-6.42,5.79-9.59a10.38,10.38,0,0,1,8.12-5c13.19-1.35,24.88,2.46,35.35,10.37a62.42,62.42,0,0,1,12.6,12.07,19,19,0,0,1,2.92,5.32,6.46,6.46,0,0,1,.36,1.84c.08,2.15-1.06,3.34-3.23,3.44-3.73.16-6.53-1.61-8.9-4.26a22.14,22.14,0,0,1-4.74-8.17,14.79,14.79,0,0,0-5.45-7.21,42.11,42.11,0,0,0-19.26-8.68,29,29,0,0,0-10.63.12A4.5,4.5,0,0,0,242.4,118a18,18,0,0,0-3.55,8.51,5.9,5.9,0,0,0-.24,2.56c.26.76,1.39.9,2.13,1.32,6.4,3.73,11.16,8.87,13.61,16A26.17,26.17,0,0,1,255.46,158c-2.28,19.2-10.56,35.52-24.06,49.25a35.83,35.83,0,0,1-8.86,6.53c-7.63,4.08-15.1,3.68-22.37-.88-5.15-3.23-9-7.77-12.33-12.76-5.12-7.66-8.71-16.06-11.69-24.74A52.82,52.82,0,0,1,173,159.66a33.71,33.71,0,0,1,10-25.81,42,42,0,0,1,8.9-6.78c.33-.2.68-.34.56-.87-.61-2.72-.6-5.52-1.08-8.26a23.68,23.68,0,0,0-2.52-7.25c-1.4-2.6-3.51-3.67-6.43-3.87-8.52-.56-16,2.2-23,6.72a33.66,33.66,0,0,0-6.3,5.31,12,12,0,0,0-2.73,4.61,26.74,26.74,0,0,1-6.59,11.26,10.26,10.26,0,0,1-5.92,3,6.26,6.26,0,0,1-2.4-.15,3,3,0,0,1-2.28-3,9.54,9.54,0,0,1,1-4.33,30.76,30.76,0,0,1,5.9-8.63,69.23,69.23,0,0,1,17.43-14.26A45.65,45.65,0,0,1,180.07,101.54Zm35.22,77c0,6.07,2.35,10,6.47,11.66a13.34,13.34,0,0,0,8.19.48c9.19-2.13,16.92-10.68,18-20.08.49-4.38-.67-8.28-4.47-11-3-2.08-6.3-2.33-9.72-1.62a23,23,0,0,0-13.67,8.94C217.16,170.61,215.39,174.76,215.29,178.5Zm-37.87-11.2a22.71,22.71,0,0,0,1.78,8.46c2.41,5.63,6.1,10.07,11.84,12.53,3.48,1.48,7.05,1.72,10.48-.15,3.93-2.14,5.63-5.75,6.06-10,.61-6-1.33-11.39-4.9-16.18a19.51,19.51,0,0,0-10.13-7.38c-6.51-1.95-12.37,1.17-14.37,7.6A18.45,18.45,0,0,0,177.42,167.3Z"/></g><path class="cls-1" d="M117.37,285.66V230.17h27.5a13.83,13.83,0,0,1,5.71,1.18,15,15,0,0,1,7.81,7.81,14.47,14.47,0,0,1-.68,12.82,14.72,14.72,0,0,1-4.92,5.15,15,15,0,0,1,7.13,5.32,14.63,14.63,0,0,1,1.6,14.3,15.13,15.13,0,0,1-3.16,4.65A14.44,14.44,0,0,1,148,285.66Zm27.5-29.31a11.53,11.53,0,0,0,8.21-3.36,11.65,11.65,0,0,0,2.46-3.63,11.15,11.15,0,0,0,.9-4.49,11.46,11.46,0,0,0-.9-4.54,11.41,11.41,0,0,0-6.13-6.13,11.46,11.46,0,0,0-4.54-.9H120.49v23.05Zm-24.38,3.13v23h27.59a11.45,11.45,0,0,0,4.53-.9,11.32,11.32,0,0,0,3.68-2.46,11.65,11.65,0,0,0,2.46-3.63,11.33,11.33,0,0,0,.9-4.5,11.44,11.44,0,0,0-7-10.66,11.45,11.45,0,0,0-4.53-.9Z"/><path class="cls-1" d="M194.26,271a12.21,12.21,0,0,1,1.18-5.51,17.6,17.6,0,0,1,3.12-4.42V241.82a12.39,12.39,0,0,1,1-5,13,13,0,0,1,6.87-6.88,12.79,12.79,0,0,1,10,0,13,13,0,0,1,6.87,6.88,12.39,12.39,0,0,1,1,5,9.49,9.49,0,0,1-2,6.05,22.47,22.47,0,0,1-5,4.61,62.66,62.66,0,0,1-6.49,3.91,66.37,66.37,0,0,0-6.49,3.91,22.71,22.71,0,0,0-5,4.61,9.5,9.5,0,0,0-2,6.06,11.2,11.2,0,0,0,1.09,4.88,13,13,0,0,0,3,4.06,14.87,14.87,0,0,0,4.49,2.82,14.8,14.8,0,0,0,11,0,14.75,14.75,0,0,0,4.49-2.82,13,13,0,0,0,3-4.06,11.2,11.2,0,0,0,1.09-4.88v-7.74H215.36V260.1h13.29a7.72,7.72,0,0,0,7.81-7.81h3.13a10.7,10.7,0,0,1-.86,4.26,11,11,0,0,1-5.82,5.82,10.7,10.7,0,0,1-4.26.86V271a14.08,14.08,0,0,1-1.37,6.09,16.48,16.48,0,0,1-3.71,5.08,18,18,0,0,1-5.47,3.48,17.76,17.76,0,0,1-13.29,0,18.11,18.11,0,0,1-5.47-3.48,16.48,16.48,0,0,1-3.71-5.08A14.08,14.08,0,0,1,194.26,271Zm7.43-12.59a47,47,0,0,1,6.4-3.94,71.26,71.26,0,0,0,6.37-3.64,23.68,23.68,0,0,0,4.85-4,7.17,7.17,0,0,0,1.91-5,9.21,9.21,0,0,0-.78-3.79,10,10,0,0,0-2.11-3.09,10.17,10.17,0,0,0-3.08-2.11,9.6,9.6,0,0,0-7.58,0,10.1,10.1,0,0,0-5.2,5.2,9.21,9.21,0,0,0-.78,3.79Z"/><path class="cls-1" d="M308.79,284.68a29.28,29.28,0,0,1-22.51,0,29,29,0,0,1-15.43-15.43,29.24,29.24,0,0,1,0-22.59,29,29,0,0,1,15.43-15.43,29.28,29.28,0,0,1,22.51,0,29.69,29.69,0,0,1,9.18,6.14l-2.19,2.18a25.4,25.4,0,0,0-8.16-5.47,25.72,25.72,0,0,0-10.05-1.95,25.18,25.18,0,0,0-10.08,2,26.4,26.4,0,0,0-8.2,5.55,26,26,0,0,0-5.55,8.21,26,26,0,0,0,0,20.16,26.16,26.16,0,0,0,13.75,13.75,25,25,0,0,0,10.08,2,25.72,25.72,0,0,0,10.05-1.95,25.24,25.24,0,0,0,8.16-5.47l2.19,2.19A29.66,29.66,0,0,1,308.79,284.68Z"/><path class="cls-1" d="M69.43,327v8.9H68V311.13H78.92a7.77,7.77,0,0,1,3.08.62,8.07,8.07,0,0,1,2.53,1.71A8.31,8.31,0,0,1,86.24,316a7.89,7.89,0,0,1,0,6.18,8.19,8.19,0,0,1-1.71,2.53A7.85,7.85,0,0,1,82,326.39a7.77,7.77,0,0,1-3.08.61Zm9.49-1.39a6.37,6.37,0,0,0,2.54-.51,6.46,6.46,0,0,0,2.08-1.4A6.78,6.78,0,0,0,85,321.63a6.4,6.4,0,0,0,0-5.1,6.69,6.69,0,0,0-3.49-3.48,6.21,6.21,0,0,0-2.54-.53H69.43v13.09Z"/><path class="cls-1" d="M107.14,334.85a6.07,6.07,0,0,0,3.3-.82,8.83,8.83,0,0,0,2.32-2.14l1.08.94a9.28,9.28,0,0,1-2.79,2.49,7.67,7.67,0,0,1-3.91.93,7.05,7.05,0,0,1-3.19-.72,7.46,7.46,0,0,1-2.48-1.94,9,9,0,0,1-1.6-2.87,11.09,11.09,0,0,1,0-7.08,8.76,8.76,0,0,1,1.6-2.88,7.55,7.55,0,0,1,2.47-1.94,7,7,0,0,1,3.18-.72,7.08,7.08,0,0,1,3.19.72,7.55,7.55,0,0,1,2.47,1.94,8.94,8.94,0,0,1,1.6,2.88,10.77,10.77,0,0,1,.58,3.54v.69H100.69a9.05,9.05,0,0,0,.61,2.74,7.27,7.27,0,0,0,1.34,2.22,6.19,6.19,0,0,0,2,1.48A5.82,5.82,0,0,0,107.14,334.85Zm0-15.35a5.82,5.82,0,0,0-2.53.54,6.35,6.35,0,0,0-2,1.48,7.27,7.27,0,0,0-1.34,2.22,9.05,9.05,0,0,0-.61,2.74h12.87a9.68,9.68,0,0,0-.59-2.74,7.25,7.25,0,0,0-1.33-2.22,6.23,6.23,0,0,0-2-1.48A5.82,5.82,0,0,0,107.14,319.5Z"/><path class="cls-1" d="M129.43,331.22a2.56,2.56,0,0,0,.53,1.62A4,4,0,0,0,131.3,334a7.34,7.34,0,0,0,1.83.66,8.72,8.72,0,0,0,4,0,7.34,7.34,0,0,0,1.83-.66,3.88,3.88,0,0,0,1.34-1.12,2.56,2.56,0,0,0,.53-1.62,2.39,2.39,0,0,0-.44-1.46,3.32,3.32,0,0,0-1.19-1,8.4,8.4,0,0,0-1.79-.66c-.7-.19-1.46-.36-2.27-.53a26,26,0,0,1-2.79-.68,8.23,8.23,0,0,1-2.06-.89,3.7,3.7,0,0,1-1.29-1.29,3.66,3.66,0,0,1-.45-1.88,3.71,3.71,0,0,1,.54-2,4.79,4.79,0,0,1,1.46-1.48,7.67,7.67,0,0,1,2.11-.95,9.48,9.48,0,0,1,5,0,7.67,7.67,0,0,1,2.11.95,4.79,4.79,0,0,1,1.46,1.48,3.71,3.71,0,0,1,.54,2h-1.39a2.41,2.41,0,0,0-.47-1.47,4,4,0,0,0-1.21-1,5.9,5.9,0,0,0-1.65-.63,8.43,8.43,0,0,0-3.74,0,6,6,0,0,0-1.65.63,4,4,0,0,0-1.21,1,2.41,2.41,0,0,0-.47,1.47,2.37,2.37,0,0,0,.37,1.38,2.76,2.76,0,0,0,1.05.9,6.85,6.85,0,0,0,1.63.61c.64.17,1.36.32,2.15.46q1.6.32,2.91.69a9.31,9.31,0,0,1,2.24,1,4.46,4.46,0,0,1,1.43,1.4,3.74,3.74,0,0,1,.5,2,4,4,0,0,1-.57,2.1,5.11,5.11,0,0,1-1.56,1.58,7.64,7.64,0,0,1-2.26,1,10.51,10.51,0,0,1-5.38,0,7.64,7.64,0,0,1-2.26-1,5.22,5.22,0,0,1-1.56-1.58,4,4,0,0,1-.57-2.1Z"/><path class="cls-1" d="M154.41,318.45h3.14v-7l1.4-.35v7.32h3.49v1.4H159V331a3.45,3.45,0,0,0,3.49,3.49v1.4a4.65,4.65,0,0,1-1.9-.39,4.78,4.78,0,0,1-2.6-2.6,4.65,4.65,0,0,1-.39-1.9V319.85h-3.14Z"/><path class="cls-1" d="M213.11,335.46a13,13,0,0,1-10.05,0,12.79,12.79,0,0,1-4.11-2.77,13,13,0,0,1-2.78-4.12,13.08,13.08,0,0,1,0-10.08,13,13,0,0,1,6.89-6.89,13.13,13.13,0,0,1,10.05,0,13.46,13.46,0,0,1,4.1,2.74l-1,1a11.15,11.15,0,0,0-3.64-2.44,11.51,11.51,0,0,0-4.48-.88,11.24,11.24,0,0,0-4.5.91,11.77,11.77,0,0,0-3.67,2.48,12,12,0,0,0-2.48,3.66,11.7,11.7,0,0,0,0,9,11.94,11.94,0,0,0,2.48,3.67,11.74,11.74,0,0,0,3.67,2.47,11.07,11.07,0,0,0,4.5.91,11.5,11.5,0,0,0,4.48-.87,11.31,11.31,0,0,0,3.64-2.44l1,1A13.11,13.11,0,0,1,213.11,335.46Z"/><path class="cls-1" d="M230.08,327.18a9.55,9.55,0,0,1,.69-3.69,9.1,9.1,0,0,1,1.83-2.86,8.05,8.05,0,0,1,2.7-1.86,8.61,8.61,0,0,1,6.66,0,8.09,8.09,0,0,1,2.71,1.86,9.1,9.1,0,0,1,1.83,2.86,10.32,10.32,0,0,1,0,7.37,9.1,9.1,0,0,1-1.83,2.86,8.09,8.09,0,0,1-2.71,1.86,8.61,8.61,0,0,1-6.66,0,8.05,8.05,0,0,1-2.7-1.86,9.1,9.1,0,0,1-1.83-2.86A9.53,9.53,0,0,1,230.08,327.18Zm1.4,0a8.45,8.45,0,0,0,.56,3.12,7.24,7.24,0,0,0,1.53,2.42,7,7,0,0,0,5.06,2.13,6.91,6.91,0,0,0,2.78-.56,6.79,6.79,0,0,0,2.28-1.57,7.42,7.42,0,0,0,1.54-2.42,8.45,8.45,0,0,0,.55-3.12,8.54,8.54,0,0,0-.55-3.13,7.42,7.42,0,0,0-1.54-2.42,6.79,6.79,0,0,0-2.28-1.57,7.16,7.16,0,0,0-5.55,0,6.83,6.83,0,0,0-2.29,1.57,7.24,7.24,0,0,0-1.53,2.42A8.54,8.54,0,0,0,231.48,327.18Z"/><path class="cls-1" d="M275.72,335.9h-1.4V324.66a5.06,5.06,0,0,0-.4-2,5.14,5.14,0,0,0-1.1-1.64,5.19,5.19,0,0,0-1.64-1.1,5.06,5.06,0,0,0-2-.4,5.72,5.72,0,0,0-2.25.45,6.16,6.16,0,0,0-1.87,1.26,6.07,6.07,0,0,0-1.27,1.87,5.48,5.48,0,0,0-.47,2.28V335.9h-1.4V318.45h1.4v3a7,7,0,0,1,2.4-2.42,6.45,6.45,0,0,1,3.46-.93,6.18,6.18,0,0,1,2.54.53,6.66,6.66,0,0,1,3.49,3.49,6.21,6.21,0,0,1,.53,2.54Z"/><path class="cls-1" d="M288.76,318.45h3.14v-7l1.4-.35v7.32h3.49v1.4H293.3V331a3.45,3.45,0,0,0,3.49,3.49v1.4a4.65,4.65,0,0,1-1.9-.39,4.9,4.9,0,0,1-1.56-1,4.79,4.79,0,0,1-1-1.56,4.65,4.65,0,0,1-.39-1.9V319.85h-3.14Z"/><path class="cls-1" d="M318.66,319.5a7,7,0,0,0-2.86.54,5.9,5.9,0,0,0-2,1.48,6.51,6.51,0,0,0-1.24,2.24,9.06,9.06,0,0,0-.42,2.82v9.32h-1.39V318.45h1.39v3.88a6.63,6.63,0,0,1,2.32-3.07,7.06,7.06,0,0,1,4.24-1.16Z"/><path class="cls-1" d="M329.65,327.18a9.74,9.74,0,0,1,.68-3.69,9.1,9.1,0,0,1,1.83-2.86,8.09,8.09,0,0,1,2.71-1.86,8.61,8.61,0,0,1,6.66,0,8.05,8.05,0,0,1,2.7,1.86,9.31,9.31,0,0,1,1.84,2.86,10.32,10.32,0,0,1,0,7.37,9.31,9.31,0,0,1-1.84,2.86,8.05,8.05,0,0,1-2.7,1.86,8.61,8.61,0,0,1-6.66,0,8.09,8.09,0,0,1-2.71-1.86,9.1,9.1,0,0,1-1.83-2.86A9.72,9.72,0,0,1,329.65,327.18Zm1.4,0a8.45,8.45,0,0,0,.55,3.12,7.42,7.42,0,0,0,1.54,2.42,6.79,6.79,0,0,0,2.28,1.57,6.91,6.91,0,0,0,2.78.56,7,7,0,0,0,5.06-2.13,7.24,7.24,0,0,0,1.53-2.42,8.45,8.45,0,0,0,.56-3.12,8.54,8.54,0,0,0-.56-3.13,7.24,7.24,0,0,0-1.53-2.42,6.83,6.83,0,0,0-2.29-1.57,7,7,0,0,0-2.77-.56,7.08,7.08,0,0,0-2.78.56,6.79,6.79,0,0,0-2.28,1.57,7.42,7.42,0,0,0-1.54,2.42A8.54,8.54,0,0,0,331.05,327.18Z"/><path class="cls-1" d="M361.57,309.73H363V335.9h-1.4Z"/></svg>