<svg id="Layer_1" data-name="Layer 1" xmlns="http://www.w3.org/2000/svg" viewBox="0 0 431 438"><defs><style>.cls-1{fill:#f6921e;}.cls-2{fill:gray;stroke:gray;stroke-miterlimit:10;stroke-width:2px;}</style></defs><g id="B9nQ0l.tif"><path class="cls-1" d="M87.21,137a36.92,36.92,0,0,1,5.37.45,10.94,10.94,0,0,1,7.68,5.53q4.59,8.07,9.07,16.22a1.39,1.39,0,0,0,1.51.85,99.71,99.71,0,0,1,15.36.14,69.84,69.84,0,0,1,13.53,2.44.94.94,0,0,0,1.31-.52c2-3.33,4-6.66,6-9.95a10.77,10.77,0,0,1,8.43-5.15c13.68-1.41,25.81,2.55,36.67,10.76a64.69,64.69,0,0,1,13.08,12.52,19.93,19.93,0,0,1,3,5.52,6.54,6.54,0,0,1,.37,1.91c.08,2.23-1.11,3.47-3.35,3.56-3.87.17-6.78-1.67-9.24-4.41a23.06,23.06,0,0,1-4.91-8.48c-1-3.25-3.15-5.49-5.66-7.49a43.7,43.7,0,0,0-20-9,29.81,29.81,0,0,0-11,.12,4.72,4.72,0,0,0-2.59,2,18.59,18.59,0,0,0-3.67,8.83,6,6,0,0,0-.25,2.65c.27.79,1.44.93,2.2,1.38,6.65,3.86,11.59,9.19,14.12,16.55a27.13,27.13,0,0,1,1.16,12.15c-2.37,19.92-11,36.86-25,51.1a37.58,37.58,0,0,1-9.18,6.78c-7.93,4.23-15.67,3.82-23.22-.92-5.34-3.36-9.33-8.06-12.79-13.23-5.31-8-9-16.67-12.13-25.67a55.2,55.2,0,0,1-3.27-16.36,35,35,0,0,1,10.42-26.79,43.59,43.59,0,0,1,9.23-7c.35-.21.71-.35.59-.9-.64-2.82-.62-5.73-1.12-8.58a24.92,24.92,0,0,0-2.62-7.52c-1.45-2.69-3.64-3.8-6.68-4-8.83-.59-16.6,2.28-23.86,7a34.81,34.81,0,0,0-6.54,5.51,12.55,12.55,0,0,0-2.84,4.78,27.61,27.61,0,0,1-6.84,11.69,10.49,10.49,0,0,1-6.13,3.06,6.13,6.13,0,0,1-2.49-.15,3.16,3.16,0,0,1-2.37-3.1,9.85,9.85,0,0,1,1-4.49,32,32,0,0,1,6.12-9,71.83,71.83,0,0,1,18.09-14.79A47.24,47.24,0,0,1,87.21,137Zm36.54,79.84c0,6.3,2.43,10.37,6.71,12.1a13.81,13.81,0,0,0,8.5.49c9.53-2.2,17.56-11.08,18.64-20.82.5-4.55-.7-8.6-4.65-11.38-3.06-2.16-6.53-2.41-10.08-1.68-5.92,1.23-10.52,4.58-14.18,9.27C125.69,208.6,123.85,212.91,123.75,216.79ZM84.46,205.16A23.44,23.44,0,0,0,86.31,214c2.5,5.83,6.33,10.45,12.28,13,3.61,1.55,7.31,1.79,10.87-.15,4.08-2.22,5.84-6,6.29-10.38.63-6.28-1.38-11.83-5.09-16.79a20.21,20.21,0,0,0-10.5-7.66c-6.76-2-12.84,1.21-14.91,7.89A19,19,0,0,0,84.46,205.16Z"/></g><path class="cls-2" d="M184.26,248.35V190.78H212.8a14.52,14.52,0,0,1,5.92,1.22,15.64,15.64,0,0,1,8.11,8.11,15.12,15.12,0,0,1-.71,13.3,15.41,15.41,0,0,1-5.11,5.35,15.49,15.49,0,0,1,7.4,5.51,15.14,15.14,0,0,1,1.66,14.84,15.66,15.66,0,0,1-3.28,4.82,15.19,15.19,0,0,1-4.81,3.25,15,15,0,0,1-5.91,1.17ZM212.8,218a11.74,11.74,0,0,0,4.7-.94,11.91,11.91,0,0,0,3.81-2.55,12.1,12.1,0,0,0,2.56-3.77,11.61,11.61,0,0,0,.93-4.66,11.92,11.92,0,0,0-.93-4.71,12.16,12.16,0,0,0-2.56-3.81A12,12,0,0,0,212.8,194H187.5V218Zm-25.3,3.24v23.92h28.62a11.92,11.92,0,0,0,8.52-3.49,12.07,12.07,0,0,0,2.55-3.77,11.58,11.58,0,0,0,.93-4.66,11.9,11.9,0,0,0-12-12Z"/><path class="cls-2" d="M264,233.11a12.84,12.84,0,0,1,1.22-5.72,18.21,18.21,0,0,1,3.24-4.58V202.87a12.94,12.94,0,0,1,1.05-5.19,13.81,13.81,0,0,1,2.88-4.26,13.58,13.58,0,0,1,4.26-2.88,13.35,13.35,0,0,1,10.38,0,13.58,13.58,0,0,1,7.13,7.14,13,13,0,0,1,1.06,5.19,9.87,9.87,0,0,1-2.07,6.28,23.26,23.26,0,0,1-5.19,4.78,66.28,66.28,0,0,1-6.73,4.06,67,67,0,0,0-6.73,4,23.5,23.5,0,0,0-5.19,4.78,9.89,9.89,0,0,0-2.07,6.29,11.67,11.67,0,0,0,1.14,5.07,13.51,13.51,0,0,0,3.12,4.21,15.4,15.4,0,0,0,4.66,2.92,15.19,15.19,0,0,0,11.35,0,15.45,15.45,0,0,0,4.67-2.92,13.66,13.66,0,0,0,3.12-4.21,11.81,11.81,0,0,0,1.13-5.07v-8H285.93v-3.24h13.79a8,8,0,0,0,8.1-8.11h3.25a11,11,0,0,1-.9,4.42,11.37,11.37,0,0,1-2.43,3.61,11.71,11.71,0,0,1-3.61,2.43,10.9,10.9,0,0,1-4.41.89v8a14.7,14.7,0,0,1-1.42,6.32,17.26,17.26,0,0,1-3.85,5.27,18.65,18.65,0,0,1-5.68,3.61,18.38,18.38,0,0,1-13.78,0,18.41,18.41,0,0,1-5.68-3.61,17.1,17.1,0,0,1-3.85-5.27A14.56,14.56,0,0,1,264,233.11Zm7.7-13.06a49.07,49.07,0,0,1,6.65-4.09c2.38-1.22,4.58-2.47,6.61-3.77a24.93,24.93,0,0,0,5-4.14,7.44,7.44,0,0,0,2-5.18,9.61,9.61,0,0,0-.81-3.94,10.59,10.59,0,0,0-2.19-3.2,10.47,10.47,0,0,0-3.2-2.19,9.94,9.94,0,0,0-7.86,0,10.5,10.5,0,0,0-5.4,5.39,9.61,9.61,0,0,0-.81,3.94Z"/><path class="cls-2" d="M382.86,247.34a30.42,30.42,0,0,1-23.35,0,30.12,30.12,0,0,1-16-16,30.38,30.38,0,0,1,0-23.43,30.06,30.06,0,0,1,16-16,30.42,30.42,0,0,1,23.35,0,30.84,30.84,0,0,1,9.53,6.36l-2.27,2.27a26.26,26.26,0,0,0-8.47-5.67,26.67,26.67,0,0,0-10.42-2,25.93,25.93,0,0,0-10.46,2.11,27.06,27.06,0,0,0-14.27,14.27,27,27,0,0,0,0,20.92,27.15,27.15,0,0,0,14.27,14.27,26.1,26.1,0,0,0,10.46,2.11,26.67,26.67,0,0,0,10.42-2,26.29,26.29,0,0,0,8.47-5.68l2.27,2.27A30.7,30.7,0,0,1,382.86,247.34Z"/><path class="cls-2" d="M87.82,291.24v9.23H86.38v-25.7H97.67a7.87,7.87,0,0,1,3.2.66,8.35,8.35,0,0,1,2.63,1.77,8.47,8.47,0,0,1,1.77,2.62,8.23,8.23,0,0,1,0,6.41,8.36,8.36,0,0,1-1.77,2.62,8.18,8.18,0,0,1-5.83,2.39Zm9.85-1.44a6.73,6.73,0,0,0,4.79-2,6.85,6.85,0,0,0,1.47-2.15,6.75,6.75,0,0,0,0-5.29,7,7,0,0,0-3.62-3.61,6.34,6.34,0,0,0-2.64-.55H87.82V289.8Z"/><path class="cls-2" d="M127,299.39a6.37,6.37,0,0,0,3.42-.85,9.07,9.07,0,0,0,2.41-2.23l1.12,1a9.85,9.85,0,0,1-2.89,2.59,8.05,8.05,0,0,1-4.06,1,7.29,7.29,0,0,1-3.31-.75,7.76,7.76,0,0,1-2.57-2,9.4,9.4,0,0,1-1.67-3,11.74,11.74,0,0,1,0-7.35,9.27,9.27,0,0,1,1.66-3,7.76,7.76,0,0,1,2.57-2,7.66,7.66,0,0,1,6.61,0,7.73,7.73,0,0,1,2.56,2,9.09,9.09,0,0,1,1.66,3,11.08,11.08,0,0,1,.6,3.67v.73H120.25a9.73,9.73,0,0,0,.64,2.84,7.68,7.68,0,0,0,1.39,2.3,6.47,6.47,0,0,0,2,1.54A6.06,6.06,0,0,0,127,299.39Zm0-15.93a6.06,6.06,0,0,0-2.62.56,6.47,6.47,0,0,0-2,1.54,7.68,7.68,0,0,0-1.39,2.3,9.73,9.73,0,0,0-.64,2.84h13.36a10,10,0,0,0-.61-2.84,7.46,7.46,0,0,0-1.38-2.3,6.47,6.47,0,0,0-2.05-1.54A6,6,0,0,0,127,283.46Z"/><path class="cls-2" d="M150.08,295.62a2.71,2.71,0,0,0,.54,1.69,4.28,4.28,0,0,0,1.4,1.15,6.9,6.9,0,0,0,1.9.69,9,9,0,0,0,4.12,0,6.9,6.9,0,0,0,1.9-.69,4.18,4.18,0,0,0,1.4-1.15,2.71,2.71,0,0,0,.54-1.69,2.51,2.51,0,0,0-.45-1.52,3.45,3.45,0,0,0-1.23-1,9.56,9.56,0,0,0-1.87-.69c-.72-.19-1.5-.37-2.35-.54-1.08-.22-2-.45-2.89-.71a8.71,8.71,0,0,1-2.14-.92,3.9,3.9,0,0,1-1.34-1.34,3.8,3.8,0,0,1-.47-1.95,3.89,3.89,0,0,1,.56-2.07,5.18,5.18,0,0,1,1.52-1.54,7.79,7.79,0,0,1,2.19-1,9.61,9.61,0,0,1,5.14,0,7.79,7.79,0,0,1,2.19,1,5.06,5.06,0,0,1,1.52,1.54,3.8,3.8,0,0,1,.56,2.07h-1.45a2.48,2.48,0,0,0-.48-1.52,4.12,4.12,0,0,0-1.25-1.09,6.08,6.08,0,0,0-1.72-.65,8.66,8.66,0,0,0-3.88,0,6.08,6.08,0,0,0-1.72.65,4,4,0,0,0-1.24,1.09,2.43,2.43,0,0,0-.49,1.52,2.46,2.46,0,0,0,.38,1.43,3,3,0,0,0,1.08.94,7.76,7.76,0,0,0,1.7.63c.67.17,1.41.33,2.23.47,1.11.22,2.12.46,3,.72a9.41,9.41,0,0,1,2.32,1,4.47,4.47,0,0,1,1.48,1.45,3.8,3.8,0,0,1,.53,2,4.11,4.11,0,0,1-.6,2.18,5.14,5.14,0,0,1-1.61,1.64,8,8,0,0,1-2.35,1,10.7,10.7,0,0,1-5.58,0,8,8,0,0,1-2.35-1,5.24,5.24,0,0,1-1.61-1.64,4.11,4.11,0,0,1-.6-2.18Z"/><path class="cls-2" d="M176,282.38h3.25v-7.24l1.45-.37v7.61h3.62v1.44H180.7v11.59a3.59,3.59,0,0,0,3.62,3.62v1.44a4.82,4.82,0,0,1-2-.4,5,5,0,0,1-1.61-1.08,5.26,5.26,0,0,1-1.09-1.61,5,5,0,0,1-.4-2V283.82H176Z"/><path class="cls-2" d="M236.9,300a13.6,13.6,0,0,1-10.43,0,13.41,13.41,0,0,1-7.15-7.15,13.55,13.55,0,0,1,0-10.46,13.63,13.63,0,0,1,2.88-4.27,13.49,13.49,0,0,1,4.27-2.87,13.48,13.48,0,0,1,10.43,0,13.6,13.6,0,0,1,4.25,2.84l-1,1a11.84,11.84,0,0,0-3.78-2.53,12,12,0,0,0-4.66-.91,11.77,11.77,0,0,0-4.67.94,12.07,12.07,0,0,0-6.37,6.38,12,12,0,0,0,0,9.33,12.1,12.1,0,0,0,6.37,6.37,11.61,11.61,0,0,0,4.67.95,12,12,0,0,0,4.66-.91,11.84,11.84,0,0,0,3.78-2.53l1,1A13.77,13.77,0,0,1,236.9,300Z"/><path class="cls-2" d="M254.51,291.42a9.91,9.91,0,0,1,.7-3.81,9.45,9.45,0,0,1,1.9-3,8.47,8.47,0,0,1,2.81-1.94,9,9,0,0,1,6.91,0,8.47,8.47,0,0,1,2.81,1.94,9.45,9.45,0,0,1,1.9,3,10.75,10.75,0,0,1,0,7.63,9.45,9.45,0,0,1-1.9,3,8.47,8.47,0,0,1-2.81,1.94,9,9,0,0,1-6.91,0,8.47,8.47,0,0,1-2.81-1.94,9.45,9.45,0,0,1-1.9-3A10,10,0,0,1,254.51,291.42Zm1.44,0a8.82,8.82,0,0,0,.58,3.24,7.59,7.59,0,0,0,1.6,2.52,7.31,7.31,0,0,0,10.49,0,7.59,7.59,0,0,0,1.6-2.52,9.31,9.31,0,0,0,0-6.47,7.59,7.59,0,0,0-1.6-2.52,7.12,7.12,0,0,0-2.37-1.63,7.42,7.42,0,0,0-5.75,0,7.12,7.12,0,0,0-2.37,1.63,7.59,7.59,0,0,0-1.6,2.52A8.8,8.8,0,0,0,256,291.42Z"/><path class="cls-2" d="M301.85,300.47H300.4V288.82a5.28,5.28,0,0,0-3.26-4.94,5.24,5.24,0,0,0-2.09-.42,6,6,0,0,0-2.34.47,6.25,6.25,0,0,0-1.93,1.3,6.51,6.51,0,0,0-1.33,1.94,5.91,5.91,0,0,0-.48,2.37v10.93h-1.45V282.38H289v3.11a7.32,7.32,0,0,1,2.49-2.52,6.69,6.69,0,0,1,3.59-1,6.34,6.34,0,0,1,2.64.55,7,7,0,0,1,3.62,3.62,6.49,6.49,0,0,1,.54,2.64Z"/><path class="cls-2" d="M315.39,282.38h3.25v-7.24l1.45-.37v7.61h3.62v1.44h-3.62v11.59a3.59,3.59,0,0,0,3.62,3.62v1.44a4.85,4.85,0,0,1-2-.4,5,5,0,0,1-1.61-1.08,5.26,5.26,0,0,1-1.09-1.61,5,5,0,0,1-.4-2V283.82h-3.25Z"/><path class="cls-2" d="M346.41,283.46a7.32,7.32,0,0,0-3,.56,6.14,6.14,0,0,0-2.12,1.54,6.62,6.62,0,0,0-1.28,2.32,9.43,9.43,0,0,0-.44,2.93v9.66h-1.44V282.38h1.44v4a6.86,6.86,0,0,1,2.41-3.18,7.31,7.31,0,0,1,4.4-1.2Z"/><path class="cls-2" d="M357.81,291.42a9.91,9.91,0,0,1,.71-3.81,9.28,9.28,0,0,1,1.9-3,8.43,8.43,0,0,1,2.8-1.94,9,9,0,0,1,6.91,0,8.47,8.47,0,0,1,2.81,1.94,9.28,9.28,0,0,1,1.9,3,10.6,10.6,0,0,1,0,7.63,9.28,9.28,0,0,1-1.9,3,8.47,8.47,0,0,1-2.81,1.94,9,9,0,0,1-6.91,0,8.43,8.43,0,0,1-2.8-1.94,9.28,9.28,0,0,1-1.9-3A10,10,0,0,1,357.81,291.42Zm1.45,0a8.61,8.61,0,0,0,.58,3.24,7.41,7.41,0,0,0,1.59,2.52,7.25,7.25,0,0,0,5.25,2.21,7.23,7.23,0,0,0,2.88-.58,7.33,7.33,0,0,0,2.37-1.63,7.73,7.73,0,0,0,1.59-2.52,9.31,9.31,0,0,0,0-6.47,7.73,7.73,0,0,0-1.59-2.52,7.33,7.33,0,0,0-2.37-1.63,7.44,7.44,0,0,0-5.76,0,7.12,7.12,0,0,0-2.37,1.63,7.41,7.41,0,0,0-1.59,2.52A8.6,8.6,0,0,0,359.26,291.42Z"/><path class="cls-2" d="M390.93,273.33h1.45v27.14h-1.45Z"/></svg>