<svg id="Layer_1" data-name="Layer 1" xmlns="http://www.w3.org/2000/svg" viewBox="0 0 431 1106"><defs><style>.cls-1{fill:#f1f1f1;}.cls-2{fill:#f6921e;}.cls-18,.cls-3{font-size:56px;letter-spacing:0.3em;}.cls-10,.cls-13,.cls-14,.cls-3{fill:gray;}.cls-13,.cls-14,.cls-3{stroke:gray;}.cls-13,.cls-14,.cls-18,.cls-3{stroke-miterlimit:10;font-family:Dual-300, Dual;font-weight:300;}.cls-14,.cls-18,.cls-3{stroke-width:2px;}.cls-13,.cls-4{font-size:25px;}.cls-4{letter-spacing:0.28em;}.cls-13,.cls-5{letter-spacing:0.3em;}.cls-6{letter-spacing:0.29em;}.cls-7{letter-spacing:0.29em;}.cls-8{letter-spacing:0.26em;}.cls-9{fill:#f7b26d;}.cls-11{fill:#b2b2b2;}.cls-12{fill:#a3d845;}.cls-14{font-size:44px;letter-spacing:0.3em;}.cls-15{letter-spacing:0.28em;}.cls-16{letter-spacing:0.3em;}.cls-17{letter-spacing:0.27em;}.cls-18{stroke:#000;}</style></defs><rect class="cls-1" width="431" height="1125"/><g id="B9nQ0l.tif"><path class="cls-2" d="M190.28,48.67A25,25,0,0,1,194,49a7.55,7.55,0,0,1,5.31,3.82q3.17,5.58,6.26,11.2a1,1,0,0,0,1,.59,69.47,69.47,0,0,1,10.6.1,48.65,48.65,0,0,1,9.35,1.68.66.66,0,0,0,.91-.36c1.37-2.3,2.73-4.6,4.15-6.87a7.43,7.43,0,0,1,5.82-3.56c9.45-1,17.83,1.77,25.33,7.43a44.88,44.88,0,0,1,9,8.65,13.53,13.53,0,0,1,2.09,3.82,4.48,4.48,0,0,1,.26,1.32,2.16,2.16,0,0,1-2.32,2.46,7.92,7.92,0,0,1-6.38-3.05,16.08,16.08,0,0,1-3.39-5.86,10.7,10.7,0,0,0-3.91-5.17A30.14,30.14,0,0,0,244.34,59a20.72,20.72,0,0,0-7.61.08,3.18,3.18,0,0,0-1.79,1.39,12.85,12.85,0,0,0-2.54,6.1,4.19,4.19,0,0,0-.17,1.83c.18.55,1,.64,1.52.95a20.9,20.9,0,0,1,9.75,11.43,18.85,18.85,0,0,1,.8,8.39c-1.63,13.76-7.57,25.46-17.24,35.3a25.89,25.89,0,0,1-6.35,4.68,15,15,0,0,1-16-.64,30.08,30.08,0,0,1-8.84-9.13,76.53,76.53,0,0,1-8.38-17.73,38,38,0,0,1-2.25-11.3,24.16,24.16,0,0,1,7.19-18.5A30.16,30.16,0,0,1,198.78,67c.24-.14.49-.24.4-.62-.43-2-.43-4-.77-5.93a17,17,0,0,0-1.81-5.19A5.11,5.11,0,0,0,192,52.45c-6.1-.4-11.47,1.58-16.48,4.81A24.22,24.22,0,0,0,171,61.07a8.71,8.71,0,0,0-2,3.3,19.18,19.18,0,0,1-4.72,8.08,7.37,7.37,0,0,1-4.24,2.11,4.33,4.33,0,0,1-1.72-.11,2.17,2.17,0,0,1-1.63-2.13,6.81,6.81,0,0,1,.7-3.11A22.06,22.06,0,0,1,161.64,63a49.79,49.79,0,0,1,12.5-10.21A32.71,32.71,0,0,1,190.28,48.67Zm25.23,55.14c0,4.36,1.68,7.17,4.64,8.36a9.58,9.58,0,0,0,5.87.34,17.33,17.33,0,0,0,12.87-14.38c.35-3.14-.48-5.94-3.21-7.86a8.56,8.56,0,0,0-7-1.16,16.51,16.51,0,0,0-9.79,6.4A14.81,14.81,0,0,0,215.51,103.81Zm-27.13-8a17.19,17.19,0,0,0,9.76,15,8.28,8.28,0,0,0,7.51-.11c2.81-1.53,4-4.12,4.34-7.17A16.23,16.23,0,0,0,206.47,92a13.9,13.9,0,0,0-7.25-5.28,7.9,7.9,0,0,0-10.3,5.44A13.53,13.53,0,0,0,188.38,95.79Z"/></g><text class="cls-3" transform="translate(139.74 180.6)">B&amp;C<tspan class="cls-4"><tspan x="-32.25" y="36">P</tspan><tspan class="cls-5" x="-8.45" y="36">est </tspan><tspan class="cls-6" x="60.12" y="36">C</tspan><tspan class="cls-5" x="85.27" y="36">o</tspan><tspan class="cls-7" x="107.22" y="36">n</tspan><tspan class="cls-5" x="128.2" y="36">t</tspan><tspan class="cls-8" x="142.2" y="36">r</tspan><tspan class="cls-5" x="156.62" y="36">ol</tspan></tspan></text><g id="B9nQ0l.tif-2" data-name="B9nQ0l.tif"><path class="cls-2" d="M109.88,252.79a25.24,25.24,0,0,1,3.71.32,7.53,7.53,0,0,1,5.31,3.81q3.16,5.58,6.26,11.21a1,1,0,0,0,1,.58,69.47,69.47,0,0,1,10.6.1,47.91,47.91,0,0,1,9.35,1.69.67.67,0,0,0,.91-.37c1.36-2.3,2.73-4.6,4.14-6.87a7.42,7.42,0,0,1,5.83-3.55c9.44-1,17.82,1.76,25.33,7.42a45.15,45.15,0,0,1,9,8.65,13.79,13.79,0,0,1,2.09,3.82,4.91,4.91,0,0,1,.26,1.32,2.17,2.17,0,0,1-2.32,2.46,7.92,7.92,0,0,1-6.38-3.05,15.86,15.86,0,0,1-3.39-5.86,10.7,10.7,0,0,0-3.91-5.17,30.14,30.14,0,0,0-13.8-6.21,20.77,20.77,0,0,0-7.62.08,3.31,3.31,0,0,0-1.79,1.39,12.74,12.74,0,0,0-2.53,6.1,4.06,4.06,0,0,0-.18,1.83c.19.55,1,.64,1.53.95a20.88,20.88,0,0,1,9.75,11.44,18.83,18.83,0,0,1,.8,8.39c-1.63,13.76-7.57,25.45-17.24,35.29a26.08,26.08,0,0,1-6.35,4.68c-5.47,2.92-10.82,2.64-16-.63a30.19,30.19,0,0,1-8.83-9.14,75.94,75.94,0,0,1-8.38-17.73,38,38,0,0,1-2.25-11.3,24.16,24.16,0,0,1,7.19-18.5,30.16,30.16,0,0,1,6.38-4.86c.24-.14.49-.24.4-.62-.44-1.95-.43-4-.77-5.92a17.2,17.2,0,0,0-1.81-5.2,5.11,5.11,0,0,0-4.61-2.77c-6.1-.4-11.47,1.58-16.48,4.82a23.8,23.8,0,0,0-4.52,3.8,8.58,8.58,0,0,0-2,3.3,19.18,19.18,0,0,1-4.72,8.08,7.37,7.37,0,0,1-4.24,2.11,4.33,4.33,0,0,1-1.72-.1,2.18,2.18,0,0,1-1.63-2.14,6.81,6.81,0,0,1,.7-3.11,22,22,0,0,1,4.22-6.18,49.44,49.44,0,0,1,12.5-10.22A32.7,32.7,0,0,1,109.88,252.79Zm25.24,55.14c0,4.36,1.68,7.17,4.64,8.36a9.51,9.51,0,0,0,5.87.34,17.34,17.34,0,0,0,12.87-14.38c.35-3.14-.48-5.94-3.21-7.86a8.57,8.57,0,0,0-7-1.16,16.54,16.54,0,0,0-9.8,6.4A14.72,14.72,0,0,0,135.12,307.93Zm-27.13-8a16.3,16.3,0,0,0,1.27,6.07,16.09,16.09,0,0,0,8.48,9,8.31,8.31,0,0,0,7.51-.1c2.82-1.54,4-4.13,4.34-7.18a16.23,16.23,0,0,0-3.51-11.6,14,14,0,0,0-7.25-5.28,7.9,7.9,0,0,0-10.3,5.44A13.53,13.53,0,0,0,108,299.91Z"/></g><text class="cls-3" transform="translate(171.32 329.73)">B&amp;C<tspan class="cls-4"><tspan x="-64.51" y="36">P</tspan><tspan class="cls-5" x="-40.71" y="36">est </tspan><tspan class="cls-6" x="27.87" y="36">C</tspan><tspan class="cls-5" x="53.02" y="36">o</tspan><tspan class="cls-7" x="74.97" y="36">n</tspan><tspan class="cls-5" x="95.94" y="36">t</tspan><tspan class="cls-8" x="109.94" y="36">r</tspan><tspan class="cls-5" x="124.37" y="36">ol</tspan></tspan></text><ellipse class="cls-9" cx="124.52" cy="544.73" rx="18" ry="12" transform="translate(-409.49 380.2) rotate(-60)"/><ellipse class="cls-2" cx="124.52" cy="501.73" rx="18" ry="12" transform="translate(-372.25 358.7) rotate(-60)"/><ellipse class="cls-10" cx="124.22" cy="631.27" rx="18" ry="12" transform="translate(-484.59 423.22) rotate(-60)"/><ellipse class="cls-11" cx="124.22" cy="675.27" rx="18" ry="12" transform="translate(-522.69 445.22) rotate(-60)"/><ellipse class="cls-12" cx="124.75" cy="587.75" rx="18" ry="12" transform="translate(-446.63 401.92) rotate(-60)"/><text class="cls-13" transform="translate(150.72 509.48)">#f6921e <tspan x="0" y="43">#f7b26d</tspan><tspan x="0" y="86">#a3d845</tspan><tspan x="0" y="129">#808080</tspan><tspan x="0" y="172">#b2b2b2</tspan></text><text class="cls-14" transform="translate(62.84 444.45)">D<tspan class="cls-15" x="46.64" y="0">U</tspan><tspan class="cls-16" x="92.14" y="0">A</tspan><tspan class="cls-17" x="135.78" y="0">L</tspan><tspan class="cls-16" x="174.99" y="0" xml:space="preserve"> 300</tspan></text><g id="B9nQ0l.tif-3" data-name="B9nQ0l.tif"><path d="M190.35,723a25.22,25.22,0,0,1,3.71.31,7.55,7.55,0,0,1,5.3,3.82c2.12,3.72,4.2,7.46,6.27,11.2a1,1,0,0,0,1,.59,68.34,68.34,0,0,1,10.61.1,47.66,47.66,0,0,1,9.34,1.68.65.65,0,0,0,.91-.36c1.37-2.3,2.74-4.6,4.15-6.87a7.46,7.46,0,0,1,5.82-3.56c9.45-1,17.83,1.76,25.33,7.43a44.61,44.61,0,0,1,9,8.65,13.62,13.62,0,0,1,2.09,3.81,4.3,4.3,0,0,1,.26,1.32,2.15,2.15,0,0,1-2.31,2.46,7.85,7.85,0,0,1-6.38-3.05,15.84,15.84,0,0,1-3.4-5.85,10.54,10.54,0,0,0-3.91-5.17,30.16,30.16,0,0,0-13.8-6.22,20.72,20.72,0,0,0-7.61.09,3.21,3.21,0,0,0-1.79,1.38,12.93,12.93,0,0,0-2.54,6.11,4.19,4.19,0,0,0-.17,1.83c.19.54,1,.64,1.52.95a21,21,0,0,1,9.76,11.43,18.69,18.69,0,0,1,.79,8.39,59.13,59.13,0,0,1-17.24,35.3,26.29,26.29,0,0,1-6.34,4.68,15,15,0,0,1-16-.64,30,30,0,0,1-8.83-9.14A75.94,75.94,0,0,1,187.54,776a38,38,0,0,1-2.26-11.3,24.22,24.22,0,0,1,7.19-18.5,31.11,31.11,0,0,1,6.38-4.86c.24-.14.49-.23.41-.61-.44-1.95-.43-4-.78-5.93a17.12,17.12,0,0,0-1.8-5.19,5.12,5.12,0,0,0-4.61-2.77c-6.11-.41-11.47,1.58-16.49,4.81a24.16,24.16,0,0,0-4.51,3.81,8.44,8.44,0,0,0-2,3.3,19.1,19.1,0,0,1-4.73,8.07,7.3,7.3,0,0,1-4.23,2.12,4.38,4.38,0,0,1-1.73-.11,2.18,2.18,0,0,1-1.63-2.14,6.93,6.93,0,0,1,.7-3.1,22.3,22.3,0,0,1,4.23-6.19,49.74,49.74,0,0,1,12.49-10.21A32.63,32.63,0,0,1,190.35,723Zm25.24,55.14c0,4.35,1.68,7.16,4.63,8.36a9.62,9.62,0,0,0,5.88.34A17.34,17.34,0,0,0,239,772.46c.34-3.14-.49-5.93-3.21-7.85a8.58,8.58,0,0,0-7-1.16,16.51,16.51,0,0,0-9.79,6.4A14.72,14.72,0,0,0,215.59,778.15Zm-27.14-8a17.17,17.17,0,0,0,9.76,15,8.25,8.25,0,0,0,7.51-.1c2.82-1.53,4-4.12,4.34-7.17a16.21,16.21,0,0,0-3.51-11.6,14,14,0,0,0-7.26-5.29A7.91,7.91,0,0,0,189,766.45,13,13,0,0,0,188.45,770.12Z"/></g><text class="cls-18" transform="translate(139.82 854.94)">B&amp;C<tspan class="cls-4"><tspan x="-32.25" y="36">P</tspan><tspan class="cls-5" x="-8.45" y="36">est </tspan><tspan class="cls-6" x="60.12" y="36">C</tspan><tspan class="cls-5" x="85.27" y="36">o</tspan><tspan class="cls-7" x="107.22" y="36">n</tspan><tspan class="cls-5" x="128.2" y="36">t</tspan><tspan class="cls-8" x="142.2" y="36">r</tspan><tspan class="cls-5" x="156.62" y="36">ol</tspan></tspan></text><g id="B9nQ0l.tif-4" data-name="B9nQ0l.tif"><path d="M109.88,936.5a25.24,25.24,0,0,1,3.71.32,7.53,7.53,0,0,1,5.31,3.81q3.16,5.58,6.26,11.21a1,1,0,0,0,1,.58,69.47,69.47,0,0,1,10.6.1,47.91,47.91,0,0,1,9.35,1.69.67.67,0,0,0,.91-.36c1.36-2.31,2.73-4.61,4.14-6.88a7.42,7.42,0,0,1,5.83-3.55c9.44-1,17.82,1.76,25.33,7.43a44.82,44.82,0,0,1,9,8.64,13.79,13.79,0,0,1,2.09,3.82,4.91,4.91,0,0,1,.26,1.32,2.17,2.17,0,0,1-2.32,2.46,7.92,7.92,0,0,1-6.38-3.05,15.86,15.86,0,0,1-3.39-5.86,10.7,10.7,0,0,0-3.91-5.17A30.14,30.14,0,0,0,164,946.8a20.77,20.77,0,0,0-7.62.08,3.31,3.31,0,0,0-1.79,1.39,12.74,12.74,0,0,0-2.53,6.1,4.06,4.06,0,0,0-.18,1.83c.19.55,1,.65,1.53.95a20.88,20.88,0,0,1,9.75,11.44,18.83,18.83,0,0,1,.8,8.39c-1.63,13.76-7.57,25.45-17.24,35.29a26.08,26.08,0,0,1-6.35,4.68c-5.47,2.92-10.82,2.64-16-.63a30.19,30.19,0,0,1-8.83-9.14,75.94,75.94,0,0,1-8.38-17.73,38,38,0,0,1-2.25-11.3,24.16,24.16,0,0,1,7.19-18.5,30.16,30.16,0,0,1,6.38-4.86c.24-.14.49-.24.4-.62-.44-1.95-.43-4-.77-5.92a17.2,17.2,0,0,0-1.81-5.2,5.11,5.11,0,0,0-4.61-2.77c-6.1-.4-11.47,1.58-16.48,4.82a23.8,23.8,0,0,0-4.52,3.8,8.58,8.58,0,0,0-2,3.3,19.18,19.18,0,0,1-4.72,8.08,7.37,7.37,0,0,1-4.24,2.11,4.33,4.33,0,0,1-1.72-.1,2.18,2.18,0,0,1-1.63-2.14A6.81,6.81,0,0,1,77,957a22,22,0,0,1,4.22-6.18,49.44,49.44,0,0,1,12.5-10.22A32.7,32.7,0,0,1,109.88,936.5Zm25.24,55.14c0,4.36,1.68,7.17,4.64,8.36a9.51,9.51,0,0,0,5.87.34A17.34,17.34,0,0,0,158.5,986c.35-3.14-.48-5.94-3.21-7.86a8.57,8.57,0,0,0-7-1.16,16.54,16.54,0,0,0-9.8,6.4A14.72,14.72,0,0,0,135.12,991.64Zm-27.13-8a16.3,16.3,0,0,0,1.27,6.07,16.09,16.09,0,0,0,8.48,9,8.28,8.28,0,0,0,7.51-.1c2.82-1.54,4-4.13,4.34-7.18a16.23,16.23,0,0,0-3.51-11.6,14,14,0,0,0-7.25-5.28,7.9,7.9,0,0,0-10.3,5.44A13.53,13.53,0,0,0,108,983.62Z"/></g><text class="cls-18" transform="translate(171.32 1013.45)">B&amp;C<tspan class="cls-4"><tspan x="-64.51" y="36">P</tspan><tspan class="cls-5" x="-40.71" y="36">est </tspan><tspan class="cls-6" x="27.87" y="36">C</tspan><tspan class="cls-5" x="53.02" y="36">o</tspan><tspan class="cls-7" x="74.97" y="36">n</tspan><tspan class="cls-5" x="95.94" y="36">t</tspan><tspan class="cls-8" x="109.94" y="36">r</tspan><tspan class="cls-5" x="124.37" y="36">ol</tspan></tspan></text></svg>